<?xml version="1.0" encoding="utf-8"?>
<!-- Generator: Adobe Illustrator 24.3.0, SVG Export Plug-In . SVG Version: 6.00 Build 0)  -->
<svg version="1.1" id="Layer_2" xmlns="http://www.w3.org/2000/svg" xmlns:xlink="http://www.w3.org/1999/xlink" x="0px" y="0px"
	 viewBox="0 0 173 76" style="enable-background:new 0 0 173 76;" xml:space="preserve">
<style type="text/css">
	.st0{fill:#FF2896;}
	.st1{fill:#570066;}
</style>
<g>
	<g>
		<path class="st0" d="M42.9,32.4l-2.8,16.7c-0.6,3-2.6,3.8-4.3,3.8H22.6l5.5-30.5c-5.5-2.5-11.2-4.2-15.7-4.2
			c-4.3,0-7.8,1.2-10.1,3.9c-1.6,2-2.4,4.4-2.4,7.3C0,38.1,6.8,50.2,18.5,60c10.4,8.7,21.9,13.6,30.2,13.6c4.2,0,7.5-1.3,9.7-3.8
			c1.7-2,2.4-4.5,2.4-7.4C60.9,53.9,54,42,42.9,32.4L42.9,32.4z"/>
		<path class="st1" d="M19.3,0.1c-2.1,0-3.8,1.4-4.3,3.6l-1.9,10.1h16.5l-7.1,39.1h13.1c1.8,0,3.7-0.8,4.3-3.8l6-35.3H58
			c2.1,0,3.8-1.4,4.3-3.6l1.9-10.1H19.3L19.3,0.1z"/>
	</g>
	<g>
		<path class="st1" d="M98.1,22.4V12.1H87.4v10.3h-2.8V0.1h2.8v9.3h10.7V0.1h2.8v22.3H98.1z"/>
		<path class="st1" d="M118.1,15.4h-11.3c0,1.4,0.6,3,1.5,4c0.7,0.7,1.7,1.1,2.9,1.1c1.3,0,2.3-0.3,3-1c0.4-0.4,0.7-0.9,0.9-1.7h2.6
			c-0.2,1.6-1.2,3.1-2.5,3.9c-1.1,0.8-2.5,1.2-4.1,1.2c-2.2,0-4.1-0.9-5.3-2.4c-1.3-1.5-2-3.7-2-5.9c0-1.9,0.3-3.6,1.2-5.1
			c1.1-1.9,3.2-3.3,6-3.3c2,0,3.7,0.8,4.8,2c1.3,1.4,2,3.5,2,5.6L118.1,15.4z M114.4,9.8c-0.7-0.9-1.7-1.4-3.1-1.4
			c-2.9,0-4.3,2.4-4.4,4.7h8.5C115.4,11.9,115,10.7,114.4,9.8z"/>
		<path class="st1" d="M133.9,22.7c-1.4,0-2.3-1.1-2.3-2.4h-0.1c-0.9,1.6-2.9,2.6-5.1,2.6c-3.7,0-5.5-2.5-5.5-4.9c0-2,1.3-4.7,5.7-5
			l4.8-0.3v-1.2c0-0.8-0.1-1.8-0.8-2.4c-0.5-0.5-1.3-0.8-2.6-0.8c-1.4,0-2.4,0.4-2.9,0.9c-0.5,0.5-0.8,1.1-0.8,1.9h-2.6
			c0-1.4,0.6-2.5,1.4-3.3c1.1-1.1,3-1.7,4.9-1.7c3.1,0,4.8,1.3,5.6,3.1c0.3,0.7,0.5,1.5,0.5,2.5v7.7c0,0.8,0.3,1.1,0.9,1.1
			c0.3,0,0.7-0.1,0.7-0.1v2C135.1,22.6,134.6,22.7,133.9,22.7z M131.5,14.8l-4.3,0.3c-1.6,0.1-3.5,0.8-3.5,2.9
			c0,1.4,0.9,2.7,3.1,2.7c1.2,0,2.4-0.4,3.3-1.3c0.9-1,1.4-2.3,1.4-3.6V14.8z"/>
		<path class="st1" d="M142.4,22.6c-2.3,0-3.3-1.4-3.3-3.9v-19h2.7v18.8c0,1.1,0.3,1.6,1.4,1.6c0.9,0,1.1,0,1.1,0v2.3
			C144.2,22.4,143.6,22.6,142.4,22.6z"/>
		<path class="st1" d="M153.3,22.7c-3.4,0-4.4-2.2-4.4-4.3V8.8h-3.1V6.5h3.1V2.5l2.7-0.6v4.7h4.7v2.3h-4.7V18c0,1.5,0.7,2.2,2.1,2.2
			c1.1,0,2.7-0.3,2.7-0.3v2.3C155.7,22.4,154.8,22.7,153.3,22.7z"/>
		<path class="st1" d="M170.3,22.4V12.3c0-2.4-1-3.8-3.5-3.8c-1.5,0-2.8,1-3.5,2.5c-0.5,1.2-0.6,2.8-0.6,4.1v7.4h-2.7V-0.3h2.7v8.9
			c0.9-1.6,2.9-2.5,4.7-2.5c3.6,0,5.5,2.2,5.5,5.9v10.5H170.3z"/>
	</g>
</g>
</svg>
